<?xml version="1.0" standalone="no"?>
<!DOCTYPE svg PUBLIC "-//W3C//DTD SVG 20010904//EN"
 "http://www.w3.org/TR/2001/REC-SVG-20010904/DTD/svg10.dtd">
<svg version="1.0" xmlns="http://www.w3.org/2000/svg"
 width="512.000000pt" height="512.000000pt" viewBox="0 0 512.000000 512.000000"
 preserveAspectRatio="xMidYMid meet">
<metadata>
Created by potrace 1.14, written by Peter Selinger 2001-2017
</metadata>
<g transform="translate(0.000000,512.000000) scale(0.100000,-0.100000)"
fill="#000000" stroke="none">
<path d="M4244 2955 c10 -8 23 -16 28 -17 9 -3 32 -237 24 -246 -2 -2 -28 4
-57 12 -29 9 -66 16 -83 16 -42 0 -102 -18 -119 -35 -8 -8 -17 -12 -20 -9 -9
10 -58 -71 -73 -122 -28 -93 -10 -266 32 -309 8 -8 12 -15 8 -15 -4 0 3 -11
16 -25 12 -13 27 -22 31 -19 5 3 9 1 9 -4 0 -15 58 -32 108 -32 46 0 132 33
132 51 0 19 27 8 38 -16 9 -20 19 -25 47 -25 l35 0 0 363 c0 353 -5 421 -32
439 -7 4 -42 8 -78 8 -59 -1 -63 -2 -46 -15z m14 -301 l32 -13 0 -184 c0 -178
-1 -184 -22 -204 -35 -32 -63 -43 -106 -43 -83 0 -122 73 -122 230 0 204 71
274 218 214z"/>
<path d="M130 2905 c7 -8 15 -13 19 -11 7 5 24 -14 31 -34 3 -8 6 -169 8 -357
l3 -343 34 0 35 0 0 310 c0 171 4 310 8 310 4 0 69 -138 144 -307 102 -229
141 -309 155 -311 15 -2 42 52 149 300 72 166 136 304 143 306 8 3 11 -77 11
-302 l0 -306 50 0 50 0 0 380 0 380 -67 0 -68 0 -121 -283 c-72 -167 -127
-283 -136 -285 -8 -2 -15 3 -15 10 0 7 -41 103 -91 213 -110 244 -152 333
-152 322 0 -5 -7 -1 -16 7 -12 12 -37 16 -101 16 -75 0 -84 -2 -73 -15z"/>
<path d="M1253 2701 c-24 -11 -43 -25 -43 -31 0 -6 -4 -9 -9 -6 -4 3 -16 -3
-26 -14 -10 -11 -15 -20 -10 -20 4 0 -2 -8 -14 -17 -34 -28 -55 -148 -41 -237
19 -124 82 -195 194 -217 60 -13 156 2 181 27 8 9 15 12 15 8 0 -3 7 -1 15 6
13 11 18 10 28 -3 14 -18 58 -37 88 -37 24 0 25 26 2 39 -16 9 -18 34 -21 266
l-3 257 -37 -6 c-20 -3 -42 -13 -49 -22 -11 -15 -15 -15 -50 2 -57 27 -167 30
-220 5z m183 -40 c94 -57 103 -340 15 -425 -41 -39 -112 -46 -159 -16 -54 33
-76 96 -77 215 0 116 19 180 66 220 38 32 109 34 155 6z"/>
<path d="M1760 2708 c0 -4 11 -18 25 -32 l25 -25 0 -241 0 -240 55 0 55 0 0
230 0 230 33 20 c39 24 94 26 126 4 45 -32 51 -68 51 -289 l0 -205 51 0 51 0
-4 234 c-2 177 0 236 10 245 6 7 12 9 12 6 0 -3 10 1 23 9 27 18 62 22 102 12
23 -5 35 -17 50 -49 18 -37 20 -65 20 -249 l0 -208 53 0 54 0 -4 223 c-3 240
-8 262 -63 305 -55 44 -216 32 -248 -18 -13 -22 -47 -27 -47 -7 0 20 -51 45
-108 53 -53 7 -142 -16 -142 -37 0 -15 -32 -10 -45 8 -13 17 -135 37 -135 21z"/>
<path d="M2843 2709 c-18 -5 -33 -14 -33 -20 0 -6 -5 -7 -10 -4 -6 3 -13 -1
-16 -9 -3 -9 -10 -14 -14 -11 -4 2 -15 -4 -25 -15 -10 -11 -15 -20 -12 -20 4
0 -2 -9 -12 -19 -53 -53 -55 -287 -2 -340 10 -10 20 -25 24 -34 10 -27 80 -67
138 -79 65 -13 160 3 190 33 10 10 19 16 19 12 0 -3 11 4 25 17 13 12 22 26
20 30 -3 5 1 10 8 13 32 12 53 152 37 247 -15 90 -53 144 -129 183 -58 29
-141 35 -208 16z m165 -54 c39 -33 63 -94 69 -180 6 -76 -14 -175 -43 -221
-51 -77 -166 -67 -207 19 -39 80 -41 241 -4 328 33 79 124 105 185 54z"/>
<path d="M3280 2715 c0 -2 11 -15 24 -28 33 -33 38 -76 34 -315 l-3 -202 53 0
52 0 0 238 0 239 55 18 c48 17 61 18 101 7 39 -11 90 -42 68 -42 -3 0 0 -7 7
-17 11 -12 15 -68 17 -235 l4 -218 49 0 49 0 0 223 c0 244 -5 269 -63 311 -24
18 -43 21 -125 21 -73 0 -106 -4 -131 -17 -42 -22 -43 -22 -71 2 -16 14 -37
20 -72 20 -26 0 -48 -2 -48 -5z"/>
<path d="M4672 2705 c-41 -18 -95 -56 -88 -62 2 -3 -4 -13 -14 -23 -23 -23
-40 -102 -40 -186 0 -70 17 -154 31 -154 5 0 8 -4 7 -9 -6 -18 46 -74 85 -92
51 -23 162 -25 212 -5 44 19 109 81 100 96 -4 7 -21 -2 -45 -24 -73 -66 -167
-71 -226 -12 -33 33 -64 114 -64 168 l0 28 185 0 185 0 0 41 c0 44 -29 139
-43 139 -4 0 -5 5 -2 10 3 6 -1 13 -9 16 -9 3 -13 10 -10 15 3 5 -3 12 -13 16
-10 4 -22 12 -28 19 -29 34 -163 45 -223 19z m155 -35 c42 -25 62 -65 70 -140
l6 -60 -132 0 -131 0 0 48 c0 65 35 132 80 154 45 23 67 22 107 -2z"/>
</g>
</svg>
